# xmcd CD database file
#
# Track frame offsets:
#	150
#	15800
#	29625
#	51820
#	67377
#	81340
#	95275
#	106020
#	119912
#	132832
#	147932
#	165215
#
# Disc length: 2422 seconds
#
# Revision: 5
# Processed by: cddbd v1.5.2PL0 Copyright (c) Steve Scherf et al.
# Submitted via: CDex 1.70beta2
#
DISCID=9e09740c
DTITLE=Jimmy Barnes - Soul Deep
DYEAR=1991
DGENRE=Soul
TTITLE0=I Gotcha
TTITLE1=(Your love keeps lifting me) Higher And Higher
TTITLE2=When Something Is Wrong With My Baby
TTITLE3=Show Me
TTITLE4=Many Rivers To Cross
TTITLE5=Reflections
TTITLE6=Ain't No Mountain High Enough
TTITLE7=I Found A Love
TTITLE8=Signed Sealed Delivered (I'm yours)
TTITLE9=Bring It On Home To Me
TTITLE10=Here I Am (Come and take me)
TTITLE11=River Deep Mountain High
EXTD=YEAR: 1991
EXTT0=
EXTT1=
EXTT2=
EXTT3=
EXTT4=
EXTT5=
EXTT6=
EXTT7=
EXTT8=
EXTT9=
EXTT10=
EXTT11=
PLAYORDER=
